<?xml version="1.0" encoding="UTF-8" standalone="no"?>
<!DOCTYPE svg PUBLIC "-//W3C//DTD SVG 1.1//EN"
 "http://www.w3.org/Graphics/SVG/1.1/DTD/svg11.dtd">
<!-- Generated by graphviz version 2.36.0 (20140111.2315)
 -->
<!-- Title: controllers_diagram Pages: 1 -->
<svg width="691pt" height="747pt"
 viewBox="0.00 0.00 691.00 747.00" xmlns="http://www.w3.org/2000/svg" xmlns:xlink="http://www.w3.org/1999/xlink">
<g id="graph0" class="graph" transform="scale(1 1) rotate(0) translate(4 743)">
<title>controllers_diagram</title>
<polygon fill="white" stroke="none" points="-4,4 -4,-743 687,-743 687,4 -4,4"/>
<!-- _diagram_info -->
<g id="node1" class="node"><title>_diagram_info</title>
<text text-anchor="start" x="103" y="-139.6" font-family="Times,serif" font-size="13.00">Controllers diagram</text>
<text text-anchor="start" x="103" y="-125.6" font-family="Times,serif" font-size="13.00">Date: May 26 2015 &#45; 00:19</text>
<text text-anchor="start" x="103" y="-111.6" font-family="Times,serif" font-size="13.00">Migration version: 20150522235942</text>
<text text-anchor="start" x="103" y="-97.6" font-family="Times,serif" font-size="13.00">Generated by RailRoady 1.3.0</text>
<text text-anchor="start" x="103" y="-83.6" font-family="Times,serif" font-size="13.00">http://railroady.prestonlee.com</text>
</g>
<!-- Api::V1::UsersController -->
<g id="node2" class="node"><title>Api::V1::UsersController</title>
<path fill="none" stroke="black" d="M12,-380.5C12,-380.5 143,-380.5 143,-380.5 149,-380.5 155,-386.5 155,-392.5 155,-392.5 155,-521.5 155,-521.5 155,-527.5 149,-533.5 143,-533.5 143,-533.5 12,-533.5 12,-533.5 6,-533.5 0,-527.5 0,-521.5 0,-521.5 0,-392.5 0,-392.5 0,-386.5 6,-380.5 12,-380.5"/>
<text text-anchor="middle" x="77.5" y="-518.3" font-family="Times,serif" font-size="14.00">Api::V1::UsersController</text>
<polyline fill="none" stroke="black" points="0,-510.5 155,-510.5 "/>
<text text-anchor="start" x="8" y="-495.3" font-family="Times,serif" font-size="14.00">create</text>
<text text-anchor="start" x="8" y="-480.3" font-family="Times,serif" font-size="14.00">destroy</text>
<text text-anchor="start" x="8" y="-465.3" font-family="Times,serif" font-size="14.00">show</text>
<text text-anchor="start" x="8" y="-450.3" font-family="Times,serif" font-size="14.00">update</text>
<polyline fill="none" stroke="black" points="0,-442.5 155,-442.5 "/>
<polyline fill="none" stroke="black" points="0,-418.5 155,-418.5 "/>
<text text-anchor="start" x="8" y="-403.3" font-family="Times,serif" font-size="14.00">_layout</text>
<text text-anchor="start" x="8" y="-388.3" font-family="Times,serif" font-size="14.00">user_params</text>
</g>
<!-- Api::V1::VachanaSahityasController -->
<g id="node3" class="node"><title>Api::V1::VachanaSahityasController</title>
<path fill="none" stroke="black" d="M202,-190.5C202,-190.5 395,-190.5 395,-190.5 401,-190.5 407,-196.5 407,-202.5 407,-202.5 407,-346.5 407,-346.5 407,-352.5 401,-358.5 395,-358.5 395,-358.5 202,-358.5 202,-358.5 196,-358.5 190,-352.5 190,-346.5 190,-346.5 190,-202.5 190,-202.5 190,-196.5 196,-190.5 202,-190.5"/>
<text text-anchor="middle" x="298.5" y="-343.3" font-family="Times,serif" font-size="14.00">Api::V1::VachanaSahityasController</text>
<polyline fill="none" stroke="black" points="190,-335.5 407,-335.5 "/>
<text text-anchor="start" x="198" y="-320.3" font-family="Times,serif" font-size="14.00">create</text>
<text text-anchor="start" x="198" y="-305.3" font-family="Times,serif" font-size="14.00">destroy</text>
<text text-anchor="start" x="198" y="-290.3" font-family="Times,serif" font-size="14.00">index</text>
<text text-anchor="start" x="198" y="-275.3" font-family="Times,serif" font-size="14.00">show</text>
<text text-anchor="start" x="198" y="-260.3" font-family="Times,serif" font-size="14.00">update</text>
<polyline fill="none" stroke="black" points="190,-252.5 407,-252.5 "/>
<polyline fill="none" stroke="black" points="190,-228.5 407,-228.5 "/>
<text text-anchor="start" x="198" y="-213.3" font-family="Times,serif" font-size="14.00">_layout</text>
<text text-anchor="start" x="198" y="-198.3" font-family="Times,serif" font-size="14.00">params_list</text>
</g>
<!-- Api::V1::PoetInformationsController -->
<g id="node4" class="node"><title>Api::V1::PoetInformationsController</title>
<path fill="none" stroke="black" d="M430,-399.5C430,-399.5 624,-399.5 624,-399.5 630,-399.5 636,-405.5 636,-411.5 636,-411.5 636,-555.5 636,-555.5 636,-561.5 630,-567.5 624,-567.5 624,-567.5 430,-567.5 430,-567.5 424,-567.5 418,-561.5 418,-555.5 418,-555.5 418,-411.5 418,-411.5 418,-405.5 424,-399.5 430,-399.5"/>
<text text-anchor="middle" x="527" y="-552.3" font-family="Times,serif" font-size="14.00">Api::V1::PoetInformationsController</text>
<polyline fill="none" stroke="black" points="418,-544.5 636,-544.5 "/>
<text text-anchor="start" x="426" y="-529.3" font-family="Times,serif" font-size="14.00">create</text>
<text text-anchor="start" x="426" y="-514.3" font-family="Times,serif" font-size="14.00">destroy</text>
<text text-anchor="start" x="426" y="-499.3" font-family="Times,serif" font-size="14.00">index</text>
<text text-anchor="start" x="426" y="-484.3" font-family="Times,serif" font-size="14.00">show</text>
<text text-anchor="start" x="426" y="-469.3" font-family="Times,serif" font-size="14.00">update</text>
<polyline fill="none" stroke="black" points="418,-461.5 636,-461.5 "/>
<polyline fill="none" stroke="black" points="418,-437.5 636,-437.5 "/>
<text text-anchor="start" x="426" y="-422.3" font-family="Times,serif" font-size="14.00">_layout</text>
<text text-anchor="start" x="426" y="-407.3" font-family="Times,serif" font-size="14.00">poet_params</text>
</g>
<!-- Api::V1::SessionsController -->
<g id="node5" class="node"><title>Api::V1::SessionsController</title>
<path fill="none" stroke="black" d="M354,-0.5C354,-0.5 500,-0.5 500,-0.5 506,-0.5 512,-6.5 512,-12.5 512,-12.5 512,-96.5 512,-96.5 512,-102.5 506,-108.5 500,-108.5 500,-108.5 354,-108.5 354,-108.5 348,-108.5 342,-102.5 342,-96.5 342,-96.5 342,-12.5 342,-12.5 342,-6.5 348,-0.5 354,-0.5"/>
<text text-anchor="middle" x="427" y="-93.3" font-family="Times,serif" font-size="14.00">Api::V1::SessionsController</text>
<polyline fill="none" stroke="black" points="342,-85.5 512,-85.5 "/>
<text text-anchor="start" x="350" y="-70.3" font-family="Times,serif" font-size="14.00">create</text>
<text text-anchor="start" x="350" y="-55.3" font-family="Times,serif" font-size="14.00">destroy</text>
<polyline fill="none" stroke="black" points="342,-47.5 512,-47.5 "/>
<polyline fill="none" stroke="black" points="342,-23.5 512,-23.5 "/>
<text text-anchor="start" x="350" y="-8.3" font-family="Times,serif" font-size="14.00">_layout</text>
</g>
<!-- Api::V1::HomesController -->
<g id="node6" class="node"><title>Api::V1::HomesController</title>
<path fill="none" stroke="black" d="M221,-399.5C221,-399.5 360,-399.5 360,-399.5 366,-399.5 372,-405.5 372,-411.5 372,-411.5 372,-585.5 372,-585.5 372,-591.5 366,-597.5 360,-597.5 360,-597.5 221,-597.5 221,-597.5 215,-597.5 209,-591.5 209,-585.5 209,-585.5 209,-411.5 209,-411.5 209,-405.5 215,-399.5 221,-399.5"/>
<text text-anchor="middle" x="290.5" y="-582.3" font-family="Times,serif" font-size="14.00">Api::V1::HomesController</text>
<polyline fill="none" stroke="black" points="209,-574.5 372,-574.5 "/>
<text text-anchor="start" x="217" y="-559.3" font-family="Times,serif" font-size="14.00">find_poem</text>
<text text-anchor="start" x="217" y="-544.3" font-family="Times,serif" font-size="14.00">list_poems</text>
<text text-anchor="start" x="217" y="-529.3" font-family="Times,serif" font-size="14.00">list_vachanakaara</text>
<text text-anchor="start" x="217" y="-514.3" font-family="Times,serif" font-size="14.00">poet_info</text>
<text text-anchor="start" x="217" y="-499.3" font-family="Times,serif" font-size="14.00">search_info</text>
<text text-anchor="start" x="217" y="-484.3" font-family="Times,serif" font-size="14.00">search_poem</text>
<text text-anchor="start" x="217" y="-469.3" font-family="Times,serif" font-size="14.00">search_poet</text>
<text text-anchor="start" x="217" y="-454.3" font-family="Times,serif" font-size="14.00">today_vachana</text>
<polyline fill="none" stroke="black" points="209,-446.5 372,-446.5 "/>
<polyline fill="none" stroke="black" points="209,-422.5 372,-422.5 "/>
<text text-anchor="start" x="217" y="-407.3" font-family="Times,serif" font-size="14.00">_layout</text>
</g>
<!-- Api::V1::PoetsController -->
<g id="node7" class="node"><title>Api::V1::PoetsController</title>
<path fill="none" stroke="black" d="M31,-570.5C31,-570.5 160,-570.5 160,-570.5 166,-570.5 172,-576.5 172,-582.5 172,-582.5 172,-726.5 172,-726.5 172,-732.5 166,-738.5 160,-738.5 160,-738.5 31,-738.5 31,-738.5 25,-738.5 19,-732.5 19,-726.5 19,-726.5 19,-582.5 19,-582.5 19,-576.5 25,-570.5 31,-570.5"/>
<text text-anchor="middle" x="95.5" y="-723.3" font-family="Times,serif" font-size="14.00">Api::V1::PoetsController</text>
<polyline fill="none" stroke="black" points="19,-715.5 172,-715.5 "/>
<text text-anchor="start" x="27" y="-700.3" font-family="Times,serif" font-size="14.00">create</text>
<text text-anchor="start" x="27" y="-685.3" font-family="Times,serif" font-size="14.00">destroy</text>
<text text-anchor="start" x="27" y="-670.3" font-family="Times,serif" font-size="14.00">index</text>
<text text-anchor="start" x="27" y="-655.3" font-family="Times,serif" font-size="14.00">show</text>
<text text-anchor="start" x="27" y="-640.3" font-family="Times,serif" font-size="14.00">update</text>
<polyline fill="none" stroke="black" points="19,-632.5 172,-632.5 "/>
<polyline fill="none" stroke="black" points="19,-608.5 172,-608.5 "/>
<text text-anchor="start" x="27" y="-593.3" font-family="Times,serif" font-size="14.00">_layout</text>
<text text-anchor="start" x="27" y="-578.3" font-family="Times,serif" font-size="14.00">poet_params</text>
</g>
<!-- Api::V1::PoemsController -->
<g id="node8" class="node"><title>Api::V1::PoemsController</title>
<path fill="none" stroke="black" d="M449,-152.5C449,-152.5 586,-152.5 586,-152.5 592,-152.5 598,-158.5 598,-164.5 598,-164.5 598,-308.5 598,-308.5 598,-314.5 592,-320.5 586,-320.5 586,-320.5 449,-320.5 449,-320.5 443,-320.5 437,-314.5 437,-308.5 437,-308.5 437,-164.5 437,-164.5 437,-158.5 443,-152.5 449,-152.5"/>
<text text-anchor="middle" x="517.5" y="-305.3" font-family="Times,serif" font-size="14.00">Api::V1::PoemsController</text>
<polyline fill="none" stroke="black" points="437,-297.5 598,-297.5 "/>
<text text-anchor="start" x="445" y="-282.3" font-family="Times,serif" font-size="14.00">create</text>
<text text-anchor="start" x="445" y="-267.3" font-family="Times,serif" font-size="14.00">destroy</text>
<text text-anchor="start" x="445" y="-252.3" font-family="Times,serif" font-size="14.00">index</text>
<text text-anchor="start" x="445" y="-237.3" font-family="Times,serif" font-size="14.00">show</text>
<text text-anchor="start" x="445" y="-222.3" font-family="Times,serif" font-size="14.00">update</text>
<polyline fill="none" stroke="black" points="437,-214.5 598,-214.5 "/>
<polyline fill="none" stroke="black" points="437,-190.5 598,-190.5 "/>
<text text-anchor="start" x="445" y="-175.3" font-family="Times,serif" font-size="14.00">_layout</text>
<text text-anchor="start" x="445" y="-160.3" font-family="Times,serif" font-size="14.00">poem_params</text>
</g>
<!-- ApplicationController -->
<g id="node9" class="node"><title>ApplicationController</title>
<path fill="none" stroke="black" d="M31,-247.5C31,-247.5 143,-247.5 143,-247.5 149,-247.5 155,-253.5 155,-259.5 155,-259.5 155,-329.5 155,-329.5 155,-335.5 149,-341.5 143,-341.5 143,-341.5 31,-341.5 31,-341.5 25,-341.5 19,-335.5 19,-329.5 19,-329.5 19,-259.5 19,-259.5 19,-253.5 25,-247.5 31,-247.5"/>
<text text-anchor="middle" x="87" y="-326.3" font-family="Times,serif" font-size="14.00">ApplicationController</text>
<polyline fill="none" stroke="black" points="19,-318.5 155,-318.5 "/>
<polyline fill="none" stroke="black" points="19,-294.5 155,-294.5 "/>
<polyline fill="none" stroke="black" points="19,-270.5 155,-270.5 "/>
<text text-anchor="start" x="27" y="-255.3" font-family="Times,serif" font-size="14.00">_layout</text>
</g>
<!-- ErrorsController -->
<g id="node10" class="node"><title>ErrorsController</title>
<path fill="none" stroke="black" d="M563,-0.5C563,-0.5 671,-0.5 671,-0.5 677,-0.5 683,-6.5 683,-12.5 683,-12.5 683,-96.5 683,-96.5 683,-102.5 677,-108.5 671,-108.5 671,-108.5 563,-108.5 563,-108.5 557,-108.5 551,-102.5 551,-96.5 551,-96.5 551,-12.5 551,-12.5 551,-6.5 557,-0.5 563,-0.5"/>
<text text-anchor="middle" x="617" y="-93.3" font-family="Times,serif" font-size="14.00">ErrorsController</text>
<polyline fill="none" stroke="black" points="551,-85.5 683,-85.5 "/>
<text text-anchor="start" x="559" y="-70.3" font-family="Times,serif" font-size="14.00">catch_404</text>
<text text-anchor="start" x="559" y="-55.3" font-family="Times,serif" font-size="14.00">error_render_method</text>
<polyline fill="none" stroke="black" points="551,-47.5 683,-47.5 "/>
<polyline fill="none" stroke="black" points="551,-23.5 683,-23.5 "/>
<text text-anchor="start" x="559" y="-8.3" font-family="Times,serif" font-size="14.00">_layout</text>
</g>
</g>
</svg>
