<?xml version="1.0" encoding="UTF-8" standalone="no"?>
<!DOCTYPE svg PUBLIC "-//W3C//DTD SVG 1.1//EN"
 "http://www.w3.org/Graphics/SVG/1.1/DTD/svg11.dtd">
<!-- Generated by graphviz version 2.36.0 (20140111.2315)
 -->
<!-- Title: models_diagram Pages: 1 -->
<svg width="887pt" height="424pt"
 viewBox="0.00 0.00 887.00 424.00" xmlns="http://www.w3.org/2000/svg" xmlns:xlink="http://www.w3.org/1999/xlink">
<g id="graph0" class="graph" transform="scale(1 1) rotate(0) translate(4 420)">
<title>models_diagram</title>
<polygon fill="white" stroke="none" points="-4,4 -4,-420 883,-420 883,4 -4,4"/>
<!-- _diagram_info -->
<g id="node1" class="node"><title>_diagram_info</title>
<text text-anchor="start" x="7" y="-319.6" font-family="Times,serif" font-size="13.00">Models diagram</text>
<text text-anchor="start" x="7" y="-305.6" font-family="Times,serif" font-size="13.00">Date: May 26 2015 &#45; 00:18</text>
<text text-anchor="start" x="7" y="-291.6" font-family="Times,serif" font-size="13.00">Migration version: 20150522235942</text>
<text text-anchor="start" x="7" y="-277.6" font-family="Times,serif" font-size="13.00">Generated by RailRoady 1.3.0</text>
<text text-anchor="start" x="7" y="-263.6" font-family="Times,serif" font-size="13.00">http://railroady.prestonlee.com</text>
</g>
<!-- PoetInformation -->
<g id="node2" class="node"><title>PoetInformation</title>
<path fill="none" stroke="black" d="M243.5,-189.5C243.5,-189.5 350.5,-189.5 350.5,-189.5 356.5,-189.5 362.5,-195.5 362.5,-201.5 362.5,-201.5 362.5,-388.5 362.5,-388.5 362.5,-394.5 356.5,-400.5 350.5,-400.5 350.5,-400.5 243.5,-400.5 243.5,-400.5 237.5,-400.5 231.5,-394.5 231.5,-388.5 231.5,-388.5 231.5,-201.5 231.5,-201.5 231.5,-195.5 237.5,-189.5 243.5,-189.5"/>
<text text-anchor="middle" x="297" y="-385.3" font-family="Times,serif" font-size="14.00">PoetInformation</text>
<polyline fill="none" stroke="black" points="231.5,-377.5 362.5,-377.5 "/>
<text text-anchor="start" x="239.5" y="-362.3" font-family="Times,serif" font-size="14.00">id :integer</text>
<text text-anchor="start" x="239.5" y="-347.3" font-family="Times,serif" font-size="14.00">poet_id :integer</text>
<text text-anchor="start" x="239.5" y="-332.3" font-family="Times,serif" font-size="14.00">pen_name :string</text>
<text text-anchor="start" x="239.5" y="-317.3" font-family="Times,serif" font-size="14.00">place :string</text>
<text text-anchor="start" x="239.5" y="-302.3" font-family="Times,serif" font-size="14.00">spouse :string</text>
<text text-anchor="start" x="239.5" y="-287.3" font-family="Times,serif" font-size="14.00">father :string</text>
<text text-anchor="start" x="239.5" y="-272.3" font-family="Times,serif" font-size="14.00">mother :string</text>
<text text-anchor="start" x="239.5" y="-257.3" font-family="Times,serif" font-size="14.00">birth :date</text>
<text text-anchor="start" x="239.5" y="-242.3" font-family="Times,serif" font-size="14.00">informations :text</text>
<text text-anchor="start" x="239.5" y="-227.3" font-family="Times,serif" font-size="14.00">about :text</text>
<text text-anchor="start" x="239.5" y="-212.3" font-family="Times,serif" font-size="14.00">created_at :datetime</text>
<text text-anchor="start" x="239.5" y="-197.3" font-family="Times,serif" font-size="14.00">updated_at :datetime</text>
</g>
<!-- Poem -->
<g id="node3" class="node"><title>Poem</title>
<path fill="none" stroke="black" d="M392.5,-234.5C392.5,-234.5 499.5,-234.5 499.5,-234.5 505.5,-234.5 511.5,-240.5 511.5,-246.5 511.5,-246.5 511.5,-343.5 511.5,-343.5 511.5,-349.5 505.5,-355.5 499.5,-355.5 499.5,-355.5 392.5,-355.5 392.5,-355.5 386.5,-355.5 380.5,-349.5 380.5,-343.5 380.5,-343.5 380.5,-246.5 380.5,-246.5 380.5,-240.5 386.5,-234.5 392.5,-234.5"/>
<text text-anchor="middle" x="446" y="-340.3" font-family="Times,serif" font-size="14.00">Poem</text>
<polyline fill="none" stroke="black" points="380.5,-332.5 511.5,-332.5 "/>
<text text-anchor="start" x="388.5" y="-317.3" font-family="Times,serif" font-size="14.00">id :integer</text>
<text text-anchor="start" x="388.5" y="-302.3" font-family="Times,serif" font-size="14.00">poet_id :integer</text>
<text text-anchor="start" x="388.5" y="-287.3" font-family="Times,serif" font-size="14.00">name :string</text>
<text text-anchor="start" x="388.5" y="-272.3" font-family="Times,serif" font-size="14.00">poem :text</text>
<text text-anchor="start" x="388.5" y="-257.3" font-family="Times,serif" font-size="14.00">created_at :datetime</text>
<text text-anchor="start" x="388.5" y="-242.3" font-family="Times,serif" font-size="14.00">updated_at :datetime</text>
</g>
<!-- User -->
<g id="node4" class="node"><title>User</title>
<path fill="none" stroke="black" d="M542,-174.5C542,-174.5 718,-174.5 718,-174.5 724,-174.5 730,-180.5 730,-186.5 730,-186.5 730,-403.5 730,-403.5 730,-409.5 724,-415.5 718,-415.5 718,-415.5 542,-415.5 542,-415.5 536,-415.5 530,-409.5 530,-403.5 530,-403.5 530,-186.5 530,-186.5 530,-180.5 536,-174.5 542,-174.5"/>
<text text-anchor="middle" x="630" y="-400.3" font-family="Times,serif" font-size="14.00">User</text>
<polyline fill="none" stroke="black" points="530,-392.5 730,-392.5 "/>
<text text-anchor="start" x="538" y="-377.3" font-family="Times,serif" font-size="14.00">id :integer</text>
<text text-anchor="start" x="538" y="-362.3" font-family="Times,serif" font-size="14.00">email :string</text>
<text text-anchor="start" x="538" y="-347.3" font-family="Times,serif" font-size="14.00">encrypted_password :string</text>
<text text-anchor="start" x="538" y="-332.3" font-family="Times,serif" font-size="14.00">reset_password_token :string</text>
<text text-anchor="start" x="538" y="-317.3" font-family="Times,serif" font-size="14.00">reset_password_sent_at :datetime</text>
<text text-anchor="start" x="538" y="-302.3" font-family="Times,serif" font-size="14.00">remember_created_at :datetime</text>
<text text-anchor="start" x="538" y="-287.3" font-family="Times,serif" font-size="14.00">sign_in_count :integer</text>
<text text-anchor="start" x="538" y="-272.3" font-family="Times,serif" font-size="14.00">current_sign_in_at :datetime</text>
<text text-anchor="start" x="538" y="-257.3" font-family="Times,serif" font-size="14.00">last_sign_in_at :datetime</text>
<text text-anchor="start" x="538" y="-242.3" font-family="Times,serif" font-size="14.00">current_sign_in_ip :string</text>
<text text-anchor="start" x="538" y="-227.3" font-family="Times,serif" font-size="14.00">last_sign_in_ip :string</text>
<text text-anchor="start" x="538" y="-212.3" font-family="Times,serif" font-size="14.00">created_at :datetime</text>
<text text-anchor="start" x="538" y="-197.3" font-family="Times,serif" font-size="14.00">updated_at :datetime</text>
<text text-anchor="start" x="538" y="-182.3" font-family="Times,serif" font-size="14.00">auth_token :string</text>
</g>
<!-- Poet -->
<g id="node6" class="node"><title>Poet</title>
<path fill="none" stroke="black" d="M576.5,-1C576.5,-1 683.5,-1 683.5,-1 689.5,-1 695.5,-7 695.5,-13 695.5,-13 695.5,-125 695.5,-125 695.5,-131 689.5,-137 683.5,-137 683.5,-137 576.5,-137 576.5,-137 570.5,-137 564.5,-131 564.5,-125 564.5,-125 564.5,-13 564.5,-13 564.5,-7 570.5,-1 576.5,-1"/>
<text text-anchor="middle" x="630" y="-121.8" font-family="Times,serif" font-size="14.00">Poet</text>
<polyline fill="none" stroke="black" points="564.5,-114 695.5,-114 "/>
<text text-anchor="start" x="572.5" y="-98.8" font-family="Times,serif" font-size="14.00">id :integer</text>
<text text-anchor="start" x="572.5" y="-83.8" font-family="Times,serif" font-size="14.00">pen_name :string</text>
<text text-anchor="start" x="572.5" y="-68.8" font-family="Times,serif" font-size="14.00">name :string</text>
<text text-anchor="start" x="572.5" y="-53.8" font-family="Times,serif" font-size="14.00">sex :string</text>
<text text-anchor="start" x="572.5" y="-38.8" font-family="Times,serif" font-size="14.00">created_at :datetime</text>
<text text-anchor="start" x="572.5" y="-23.8" font-family="Times,serif" font-size="14.00">updated_at :datetime</text>
<text text-anchor="start" x="572.5" y="-8.8" font-family="Times,serif" font-size="14.00">user_id :integer</text>
</g>
<!-- User&#45;&gt;Poet -->
<g id="edge1" class="edge"><title>User&#45;&gt;Poet</title>
<path fill="none" stroke="#5baa1b" d="M630,-166.368C630,-159.929 630,-153.561 630,-147.351"/>
<ellipse fill="none" stroke="#5baa1b" cx="630" cy="-170.458" rx="4" ry="4"/>
<polygon fill="#5baa1b" stroke="#5baa1b" points="630,-147.063 634.5,-137.063 630,-142.063 630,-137.063 630,-137.063 630,-137.063 630,-142.063 625.5,-137.063 630,-147.063 630,-147.063"/>
</g>
<!-- VachanaSahitya -->
<g id="node5" class="node"><title>VachanaSahitya</title>
<path fill="none" stroke="black" d="M760.5,-227C760.5,-227 867.5,-227 867.5,-227 873.5,-227 879.5,-233 879.5,-239 879.5,-239 879.5,-351 879.5,-351 879.5,-357 873.5,-363 867.5,-363 867.5,-363 760.5,-363 760.5,-363 754.5,-363 748.5,-357 748.5,-351 748.5,-351 748.5,-239 748.5,-239 748.5,-233 754.5,-227 760.5,-227"/>
<text text-anchor="middle" x="814" y="-347.8" font-family="Times,serif" font-size="14.00">VachanaSahitya</text>
<polyline fill="none" stroke="black" points="748.5,-340 879.5,-340 "/>
<text text-anchor="start" x="756.5" y="-324.8" font-family="Times,serif" font-size="14.00">id :integer</text>
<text text-anchor="start" x="756.5" y="-309.8" font-family="Times,serif" font-size="14.00">vachana :text</text>
<text text-anchor="start" x="756.5" y="-294.8" font-family="Times,serif" font-size="14.00">vachanakaara :string</text>
<text text-anchor="start" x="756.5" y="-279.8" font-family="Times,serif" font-size="14.00">pen_name :string</text>
<text text-anchor="start" x="756.5" y="-264.8" font-family="Times,serif" font-size="14.00">created_at :datetime</text>
<text text-anchor="start" x="756.5" y="-249.8" font-family="Times,serif" font-size="14.00">updated_at :datetime</text>
<text text-anchor="start" x="756.5" y="-234.8" font-family="Times,serif" font-size="14.00">user_id :integer</text>
</g>
</g>
</svg>
