<?xml version="1.0" encoding="UTF-8" standalone="no"?>
<!DOCTYPE svg PUBLIC "-//W3C//DTD SVG 1.1//EN"
 "http://www.w3.org/Graphics/SVG/1.1/DTD/svg11.dtd">
<!-- Generated by graphviz version 2.36.0 (20140111.2315)
 -->
<!-- Title: models_diagram Pages: 1 -->
<svg width="682pt" height="158pt"
 viewBox="0.00 0.00 682.00 158.00" xmlns="http://www.w3.org/2000/svg" xmlns:xlink="http://www.w3.org/1999/xlink">
<g id="graph0" class="graph" transform="scale(1 1) rotate(0) translate(4 154)">
<title>models_diagram</title>
<polygon fill="white" stroke="none" points="-4,4 -4,-154 678,-154 678,4 -4,4"/>
<!-- _diagram_info -->
<g id="node1" class="node"><title>_diagram_info</title>
<text text-anchor="start" x="7" y="-135.6" font-family="Times,serif" font-size="13.00">Models diagram</text>
<text text-anchor="start" x="7" y="-121.6" font-family="Times,serif" font-size="13.00">Date: May 26 2015 &#45; 00:18</text>
<text text-anchor="start" x="7" y="-107.6" font-family="Times,serif" font-size="13.00">Migration version: 20150522235942</text>
<text text-anchor="start" x="7" y="-93.6" font-family="Times,serif" font-size="13.00">Generated by RailRoady 1.3.0</text>
<text text-anchor="start" x="7" y="-79.6" font-family="Times,serif" font-size="13.00">http://railroady.prestonlee.com</text>
</g>
<!-- PoetInformation -->
<g id="node2" class="node"><title>PoetInformation</title>
<ellipse fill="none" stroke="black" cx="300" cy="-111" rx="68.3417" ry="18"/>
<text text-anchor="middle" x="300" y="-107.3" font-family="Times,serif" font-size="14.00">PoetInformation</text>
</g>
<!-- Poem -->
<g id="node3" class="node"><title>Poem</title>
<ellipse fill="none" stroke="black" cx="418" cy="-111" rx="31.2965" ry="18"/>
<text text-anchor="middle" x="418" y="-107.3" font-family="Times,serif" font-size="14.00">Poem</text>
</g>
<!-- User -->
<g id="node4" class="node"><title>User</title>
<ellipse fill="none" stroke="black" cx="494" cy="-111" rx="26.949" ry="18"/>
<text text-anchor="middle" x="494" y="-107.3" font-family="Times,serif" font-size="14.00">User</text>
</g>
<!-- Poet -->
<g id="node6" class="node"><title>Poet</title>
<ellipse fill="none" stroke="black" cx="494" cy="-18" rx="27" ry="18"/>
<text text-anchor="middle" x="494" y="-14.3" font-family="Times,serif" font-size="14.00">Poet</text>
</g>
<!-- User&#45;&gt;Poet -->
<g id="edge1" class="edge"><title>User&#45;&gt;Poet</title>
<path fill="none" stroke="#76f507" d="M494,-84.7285C494,-72.7246 494,-58.3622 494,-46.1291"/>
<ellipse fill="none" stroke="#76f507" cx="494" cy="-88.8836" rx="4" ry="4"/>
<polygon fill="#76f507" stroke="#76f507" points="494,-46.0397 498.5,-36.0396 494,-41.0397 494,-36.0397 494,-36.0397 494,-36.0397 494,-41.0397 489.5,-36.0397 494,-46.0397 494,-46.0397"/>
</g>
<!-- VachanaSahitya -->
<g id="node5" class="node"><title>VachanaSahitya</title>
<ellipse fill="none" stroke="black" cx="607" cy="-111" rx="67.3907" ry="18"/>
<text text-anchor="middle" x="607" y="-107.3" font-family="Times,serif" font-size="14.00">VachanaSahitya</text>
</g>
</g>
</svg>
